<mxfile host="Electron" modified="2024-07-01T00:47:57.145Z" agent="Mozilla/5.0 (Windows NT 10.0; Win64; x64) AppleWebKit/537.36 (KHTML, like Gecko) draw.io/24.4.13 Chrome/124.0.6367.207 Electron/30.0.6 Safari/537.36" etag="ebrIYQa0m-y69iylvGam" version="24.4.13" type="device">
  <diagram name="Page-1" id="xhEiLvasg8mg0GnMI7GO">
    <mxGraphModel dx="1600" dy="1040" grid="1" gridSize="10" guides="1" tooltips="1" connect="1" arrows="1" fold="1" page="1" pageScale="1" pageWidth="3300" pageHeight="4681" math="0" shadow="0">
      <root>
        <mxCell id="0" />
        <mxCell id="1" parent="0" />
        <mxCell id="vhJ9WhvQSNzs1-_2NbqS-11" style="edgeStyle=orthogonalEdgeStyle;rounded=0;orthogonalLoop=1;jettySize=auto;html=1;exitX=0.5;exitY=1;exitDx=0;exitDy=0;entryX=0.5;entryY=0;entryDx=0;entryDy=0;" edge="1" parent="1" source="80Q3dtCKqbabPvfY62a7-1" target="vhJ9WhvQSNzs1-_2NbqS-7">
          <mxGeometry relative="1" as="geometry" />
        </mxCell>
        <mxCell id="80Q3dtCKqbabPvfY62a7-1" value="Start" style="ellipse;whiteSpace=wrap;html=1;strokeWidth=1;fontSize=14;fontStyle=0;fontFamily=Times New Roman;horizontal=1;" parent="1" vertex="1">
          <mxGeometry x="360" y="20" width="160" height="40" as="geometry" />
        </mxCell>
        <mxCell id="7IPzDCqIoDp6Wx04VBee-5" style="edgeStyle=orthogonalEdgeStyle;rounded=0;orthogonalLoop=1;jettySize=auto;html=1;exitX=0.5;exitY=1;exitDx=0;exitDy=0;" parent="1" target="7IPzDCqIoDp6Wx04VBee-4" edge="1">
          <mxGeometry relative="1" as="geometry">
            <mxPoint x="439.9999999999998" y="280" as="sourcePoint" />
          </mxGeometry>
        </mxCell>
        <mxCell id="7IPzDCqIoDp6Wx04VBee-12" style="edgeStyle=orthogonalEdgeStyle;rounded=0;orthogonalLoop=1;jettySize=auto;html=1;exitX=0.5;exitY=1;exitDx=0;exitDy=0;" parent="1" source="7IPzDCqIoDp6Wx04VBee-4" target="7IPzDCqIoDp6Wx04VBee-7" edge="1">
          <mxGeometry relative="1" as="geometry" />
        </mxCell>
        <mxCell id="7IPzDCqIoDp6Wx04VBee-13" style="edgeStyle=orthogonalEdgeStyle;rounded=0;orthogonalLoop=1;jettySize=auto;html=1;exitX=0;exitY=0.5;exitDx=0;exitDy=0;" parent="1" source="7IPzDCqIoDp6Wx04VBee-4" target="7IPzDCqIoDp6Wx04VBee-6" edge="1">
          <mxGeometry relative="1" as="geometry" />
        </mxCell>
        <mxCell id="7IPzDCqIoDp6Wx04VBee-14" style="edgeStyle=orthogonalEdgeStyle;rounded=0;orthogonalLoop=1;jettySize=auto;html=1;exitX=1;exitY=0.5;exitDx=0;exitDy=0;entryX=0.5;entryY=0;entryDx=0;entryDy=0;" parent="1" source="7IPzDCqIoDp6Wx04VBee-4" target="7IPzDCqIoDp6Wx04VBee-8" edge="1">
          <mxGeometry relative="1" as="geometry" />
        </mxCell>
        <mxCell id="7IPzDCqIoDp6Wx04VBee-4" value="USER SELECT" style="rounded=0;whiteSpace=wrap;html=1;strokeWidth=1;fontSize=14;fontStyle=0;fontFamily=Times New Roman;horizontal=1;" parent="1" vertex="1">
          <mxGeometry x="360" y="320" width="160" height="40" as="geometry" />
        </mxCell>
        <mxCell id="7IPzDCqIoDp6Wx04VBee-6" value="USER" style="rounded=0;whiteSpace=wrap;html=1;strokeWidth=1;fontSize=14;fontStyle=0;fontFamily=Times New Roman;horizontal=1;" parent="1" vertex="1">
          <mxGeometry x="160" y="400" width="160" height="40" as="geometry" />
        </mxCell>
        <mxCell id="7IPzDCqIoDp6Wx04VBee-7" value="ADMIN" style="rounded=0;whiteSpace=wrap;html=1;strokeWidth=1;fontSize=14;fontStyle=0;fontFamily=Times New Roman;horizontal=1;" parent="1" vertex="1">
          <mxGeometry x="360" y="400" width="160" height="40" as="geometry" />
        </mxCell>
        <mxCell id="7IPzDCqIoDp6Wx04VBee-15" style="edgeStyle=orthogonalEdgeStyle;rounded=0;orthogonalLoop=1;jettySize=auto;html=1;exitX=0.5;exitY=1;exitDx=0;exitDy=0;entryX=0.5;entryY=0;entryDx=0;entryDy=0;" parent="1" source="7IPzDCqIoDp6Wx04VBee-8" target="7IPzDCqIoDp6Wx04VBee-11" edge="1">
          <mxGeometry relative="1" as="geometry" />
        </mxCell>
        <mxCell id="7IPzDCqIoDp6Wx04VBee-8" value="EXIT" style="shape=parallelogram;perimeter=parallelogramPerimeter;whiteSpace=wrap;html=1;fixedSize=1;fontSize=14;fontFamily=Times New Roman;rounded=0;strokeWidth=1;fontStyle=0;" parent="1" vertex="1">
          <mxGeometry x="560" y="400" width="120" height="40" as="geometry" />
        </mxCell>
        <mxCell id="7IPzDCqIoDp6Wx04VBee-11" value="END" style="ellipse;whiteSpace=wrap;html=1;strokeWidth=1;fontSize=14;fontStyle=0;fontFamily=Times New Roman;horizontal=1;" parent="1" vertex="1">
          <mxGeometry x="560" y="480" width="120" height="40" as="geometry" />
        </mxCell>
        <mxCell id="vhJ9WhvQSNzs1-_2NbqS-6" style="edgeStyle=orthogonalEdgeStyle;rounded=0;orthogonalLoop=1;jettySize=auto;html=1;exitX=0.5;exitY=1;exitDx=0;exitDy=0;entryX=0.5;entryY=0;entryDx=0;entryDy=0;strokeWidth=1;fontSize=14;fontStyle=0;fontFamily=Times New Roman;horizontal=1;" edge="1" parent="1" source="vhJ9WhvQSNzs1-_2NbqS-7" target="vhJ9WhvQSNzs1-_2NbqS-9">
          <mxGeometry relative="1" as="geometry" />
        </mxCell>
        <mxCell id="vhJ9WhvQSNzs1-_2NbqS-7" value="Input username&lt;br&gt;and password" style="shape=parallelogram;perimeter=parallelogramPerimeter;whiteSpace=wrap;html=1;fixedSize=1;strokeWidth=1;fontSize=14;fontStyle=0;fontFamily=Times New Roman;horizontal=1;" vertex="1" parent="1">
          <mxGeometry x="362.5" y="120" width="155" height="40" as="geometry" />
        </mxCell>
        <mxCell id="vhJ9WhvQSNzs1-_2NbqS-8" style="edgeStyle=orthogonalEdgeStyle;rounded=0;orthogonalLoop=1;jettySize=auto;html=1;exitX=1;exitY=0.5;exitDx=0;exitDy=0;" edge="1" parent="1" source="vhJ9WhvQSNzs1-_2NbqS-9">
          <mxGeometry relative="1" as="geometry">
            <mxPoint x="438" y="100" as="targetPoint" />
            <Array as="points">
              <mxPoint x="548" y="240" />
              <mxPoint x="548" y="100" />
            </Array>
          </mxGeometry>
        </mxCell>
        <mxCell id="vhJ9WhvQSNzs1-_2NbqS-9" value="is username and&amp;nbsp;&lt;br&gt;password valid?" style="rhombus;whiteSpace=wrap;html=1;strokeWidth=1;fontSize=14;fontStyle=0;fontFamily=Times New Roman;horizontal=1;" vertex="1" parent="1">
          <mxGeometry x="362.5" y="210" width="155" height="70" as="geometry" />
        </mxCell>
        <mxCell id="vhJ9WhvQSNzs1-_2NbqS-10" value="&lt;span style=&quot;font-size: 14px;&quot;&gt;No&lt;/span&gt;" style="text;html=1;align=center;verticalAlign=middle;whiteSpace=wrap;rounded=0;strokeWidth=1;fontSize=14;fontStyle=0;fontFamily=Times New Roman;horizontal=1;" vertex="1" parent="1">
          <mxGeometry x="502" y="214" width="60" height="30" as="geometry" />
        </mxCell>
      </root>
    </mxGraphModel>
  </diagram>
</mxfile>
